<?xml version="1.0" standalone="no"?>
<!DOCTYPE svg PUBLIC "-//W3C//DTD SVG 1.1//EN" "http://www.w3.org/Graphics/SVG/1.1/DTD/svg11.dtd" >
<svg xmlns="http://www.w3.org/2000/svg">
<metadata>Generated by IcoMoon</metadata>
<defs>
<font id="icomoon" horiz-adv-x="1024">
<font-face units-per-em="1024" ascent="960" descent="-64" />
<missing-glyph horiz-adv-x="1024" />
<glyph unicode="&#x20;" horiz-adv-x="512" d="" />
<glyph unicode="&#xe900;" glyph-name="user" d="M741.288 869.116c-58.39 56.24-137.922 90.884-225.546 90.884-0.581 0-1.162-0.002-1.743-0.005h0.090c-0.495 0.003-1.080 0.004-1.666 0.004-87.6 0-167.107-34.645-225.569-90.98l0.1 0.096c-58.022-55.297-94.112-133.159-94.144-219.45v-0.005c0-82.816 33.408-160.767 94.144-219.391 21.632-20.992 45.952-38.464 71.936-52.288-71.361-22.563-133.085-57.269-185.912-102.134l0.761 0.63c-94.144-79.68-155.711-187.967-173.375-304.831-0.191-1.296-0.3-2.792-0.3-4.313 0-15.886 11.909-28.99 27.286-30.872l0.15-0.015c1.503-0.251 3.234-0.394 4.999-0.394 15.707 0 28.76 11.362 31.389 26.315l0.028 0.191c32.512 214.719 226.111 376.894 450.174 376.894 0.549-0.003 1.198-0.005 1.847-0.005 87.551 0 167.016 34.62 225.453 90.917l-0.101-0.097c57.995 55.291 94.077 133.121 94.144 219.379v0.012c0 0.058 0 0.127 0 0.195 0 86.241-36.102 164.051-94.017 219.14l-0.127 0.12zM514.089 401.342c-141.631 0-257.023 111.424-257.023 248.255 0 136.959 115.327 248.319 257.023 248.319 141.759 0 257.087-111.36 257.087-248.319 0-136.703-115.327-248.255-257.087-248.255zM1023.719-28.288c-8.231 56.804-25.088 108.075-49.339 154.899l1.275-2.707c-25.247 48.788-56.158 90.606-92.642 126.818l-0.030 0.030c-5.942 5.835-14.094 9.437-23.087 9.437-8.667 0-16.553-3.345-22.437-8.816l0.020 0.019c-5.968-5.555-9.69-13.456-9.69-22.226 0-8.458 3.462-16.108 9.046-21.61l0.004-0.004c64.749-63.65 109.153-147.812 122.675-241.948l0.268-2.274c2.24-15.488 16-26.752 31.872-26.752 1.408 0 2.88 0 4.288 0.192 15.814 1.753 28.003 15.043 28.003 31.18 0 1.327-0.082 2.634-0.242 3.917l0.016-0.153z" />
<glyph unicode="&#xe901;" glyph-name="transfer" d="M1015.291 501.376l-369.756 369.772c-9.431 9.416-32.015 12.278-44.298 7.137-12.283-5.074-28.744-17.091-28.744-30.392v-183.26c-277.99-54.477-504.914-267.448-571.971-602.624-3.052-15.232 9.18-30.484 23.409-36.654 4.224-1.823 10.793-2.693 15.176-2.693 10.368 0 13.051 4.91 19.379 13.768 119.132 166.753 291.84 248.325 513.997 255.124v-183.194c0-13.312 16.471-25.303 28.744-30.382 12.283-5.161 30.638-2.299 40.069 7.117l371.886 369.782c12.851 12.851 14.966 33.664 2.109 46.5z" />
<glyph unicode="&#xe902;" glyph-name="transfer1" d="M1023.936 192h-768.192v-128l-255.744 192 255.744 192v-128h768.192zM0 576h767.936v-128l256 192-256 192v-128h-767.936z" />
<glyph unicode="&#xe903;" glyph-name="arrow-down" d="M96.832 697.030c9.149 0 18.299-3.488 25.282-10.471l389.946-389.948 389.824 389.943c13.965 13.968 36.6 13.968 50.562 0.009s13.968-36.6 0.009-50.562l-440.387-440.522-440.517 440.517c-13.965 13.965-13.965 36.6 0 50.562 6.983 6.983 16.131 10.471 25.282 10.471z" />
<glyph unicode="&#xe904;" glyph-name="arrow-up" d="M927.168 198.97c-9.149 0-18.299 3.488-25.282 10.471l-389.946 389.948-389.824-389.943c-13.965-13.968-36.6-13.968-50.562-0.009s-13.968 36.6-0.009 50.562l440.387 440.522 440.517-440.517c13.965-13.965 13.965-36.6 0-50.562-6.983-6.983-16.131-10.471-25.282-10.471z" />
<glyph unicode="&#xe905;" glyph-name="arrow-right" d="M248.947 9.454c0 9.665 3.688 19.331 11.063 26.706l411.904 411.902-411.899 411.772c-14.753 14.749-14.756 38.66-0.009 53.41s38.66 14.756 53.41 0.009l465.326-465.183-465.321-465.321c-14.749-14.749-38.663-14.749-53.41 0-7.375 7.375-11.063 17.039-11.063 26.706z" />
<glyph unicode="&#xe906;" glyph-name="arrow-left" d="M775.053 886.546c0-9.665-3.688-19.331-11.063-26.706l-411.904-411.902 411.899-411.772c14.753-14.749 14.756-38.66 0.009-53.41s-38.66-14.756-53.41-0.009l-465.326 465.183 465.321 465.321c14.749 14.749 38.663 14.749 53.41 0 7.375-7.375 11.063-17.039 11.063-26.706z" />
<glyph unicode="&#xe907;" glyph-name="question" d="M744.779 859.662c-60.792 63.893-146.552 100.338-235.569 100.338-84.208-0.156-163.3-33.033-222.852-92.738-59.552-59.552-92.273-138.797-92.273-223.008 0-30.861 24.968-55.83 55.83-55.83s55.83 24.968 55.83 55.83c0 112.279 91.344 203.933 203.62 204.086h0.465c58.155 0 114.294-23.883 153.839-65.599 35.049-36.909 52.883-83.744 50.246-132.285-2.171-41.252-4.187-80.177-123.599-199.589-71.802-71.802-136.781-143.296-145.465-230.76-2.947-30.706 19.384-58.001 50.090-61.103 1.86-0.156 3.722-0.309 5.583-0.309 28.38 0 52.728 21.556 55.521 50.402 4.497 45.75 46.679 96.15 113.209 162.68 138.642 138.642 152.443 202.845 156.165 272.477 4.497 79.712-24.192 156.165-80.642 215.407zM432.291 2.995c0-37.001 29.993-66.995 66.995-66.995s66.995 29.993 66.995 66.995-29.993 66.995-66.995 66.995-66.995-29.993-66.995-66.995z" />
<glyph unicode="&#xe908;" glyph-name="close" d="M600.993 448l403.88 405.473q19.084 17.504 19.084 43.703t-18.272 44.512-44.512 18.272-43.703-19.084l-405.473-403.88-405.473 403.88q-17.504 19.084-43.703 19.084t-44.512-18.272-18.272-44.512 19.084-43.703l403.88-405.473-403.88-405.473q-19.084-17.504-19.084-43.703t18.272-44.512 44.512-18.272 43.703 19.084l405.473 405.473 405.473-405.473q17.504-19.084 43.703-19.084t44.512 18.272 18.272 44.512-19.084 43.703z" />
<glyph unicode="&#xe909;" glyph-name="tick" d="M1.243 415.058c1.236-21.234 308.059-308.059 308.059-308.059 15.518-15.518 40.629-15.531 56.112-0.051l644.243 644.243c14.345 49.427-35.183 53.331-47.904 47.904-10.275-5.304-615.318-514.902-615.318-514.902-16.859-14.105-44.315-14.152-61.167-0.245l-227.397 187.733c-39.719-3.626-57.869-35.399-56.627-56.625z" />
<glyph unicode="&#xe90a;" glyph-name="edit1" d="M762.543 892.371l134.497-135.39-55.796-56.178-134.432 135.263 55.732 56.305zM819.488 635.335c6.047-5.983 13.868-8.972 21.758-8.972 7.763 0 15.649 2.988 21.631 8.972l77.491 78.063c23.985 24.048 23.985 63.241 0 87.226l-134.432 135.327c-23.857 24.048-62.669 24.048-86.526 0l-77.555-78c-11.96-12.024-11.96-31.621 0-43.644l177.632-178.972zM599.48 728.16l134.432-135.327-386.633-389.049-134.368 135.199 386.569 389.176zM184.856 279.878l103.77-104.406-144.166-40.783 40.401 145.184zM100.239 59.361c2.734 0 5.536 0.382 8.272 1.209l247.046 69.728c0.509 0.191 0.827 0.572 1.272 0.763 4.451 1.463 8.654 3.624 12.087 7.191l430.023 432.758c11.96 12.024 11.96 31.557 0 43.644l-177.76 178.908c-11.96 12.087-31.366 12.087-43.39 0l-429.896-432.758c-3.497-3.561-5.792-7.763-7.127-12.278-0.191-0.509-0.636-0.827-0.763-1.272l-69.283-248.699c-2.988-10.753 0-22.267 7.827-30.221 5.856-5.792 13.677-8.972 21.695-8.972v0 0zM927.647-2.286h-837.398c-16.989 0-30.603-13.741-30.603-30.73 0-17.116 13.614-30.985 30.603-30.985h837.398c16.926 0 30.603 13.868 30.603 30.921 0.064 17.053-13.677 30.794-30.603 30.794v0zM927.647 164.593h-423.85c-16.989 0-30.666-13.868-30.666-30.794 0-17.18 13.741-30.921 30.666-30.921h423.85c16.926 0 30.603 13.805 30.603 30.921 0.064 16.926-13.677 30.794-30.603 30.794v0z" />
<glyph unicode="&#xe90b;" glyph-name="push-phone" d="M938.668 958.933h-512c-46.933 0-85.333-38.4-85.333-85.333v-2.133c0-14.934 8.533-29.866 21.333-38.4 6.4-4.266 87.466-85.333 87.466-85.333 6.4-6.4 17.067 0 17.067 8.533 0 17.067 14.934 34.134 32 34.134h362.667c17.067 0 34.134-17.067 34.134-34.134v-576c0-17.067-17.067-29.866-34.134-29.866h-362.667c-17.067 0-29.866 12.8-29.866 29.866v2.133c0 8.533-10.667 12.8-17.067 6.4 0 0-81.067-81.067-89.6-85.333-12.8-8.533-21.333-21.333-21.333-38.4v-42.667c0-46.933 36.267-85.333 83.2-85.333h512c46.933 0 87.466 38.4 87.466 85.333v851.201c0 46.933-38.4 85.333-85.333 85.333zM682.667-22.401c-36.267 0-64 27.733-64 64s27.733 64 64 64 64-27.733 64-64-27.733-64-64-64zM588.801 491.733l-266.667 266.667c-12.8 12.8-32 12.8-44.8 0l-44.8-44.8c-12.8-12.8-12.8-32 0-44.8l98.134-98.134c12.8-12.8 4.266-36.267-14.934-36.267h-283.734c-17.067-2.133-32-17.067-32-34.134v-64c0-17.067 14.934-32 32-32h281.6c19.2 0 27.733-23.467 14.934-36.267l-98.134-98.134c-12.8-12.8-12.8-32 0-44.8l44.8-44.8c12.8-12.8 32-12.8 44.8 0l268.8 266.667c10.667 10.667 10.667 32 0 44.8z" />
<glyph unicode="&#xe90c;" glyph-name="push" d="M959.547 39.728c0-28.646-23.219-51.862-51.862-51.862h-791.368c-28.646 0-51.862 23.219-51.862 51.862v259.32h-51.862v-259.319c0-57.287 46.44-103.729 103.729-103.729h791.37c57.289 0 103.729 46.44 103.729 103.729v259.319h-51.862v-259.32zM511.996 871.411l259.774-294.409h-151.202v-335.042h-215.812v335.042h-152.532l259.773 294.409zM511.996 960.001l-389.657-441.613h223.807v-335.042h333.042v335.043h222.472l-389.658 441.612z" />
<glyph unicode="&#xe90d;" glyph-name="enable" d="M748.089 584.533l-264.533-258.844-142.222 139.378c-11.378 11.378-28.444 11.378-39.822 0s-11.378-28.444 0-39.822l162.133-159.289c5.689-5.689 14.222-8.533 22.756-8.533s14.222 2.844 22.756 8.533l284.444 278.756c11.378 11.378 11.378 28.444 0 39.822s-34.133 11.378-45.511 0zM512 960c-281.6 0-512-230.4-512-512s230.4-512 512-512 512 230.4 512 512-230.4 512-512 512zM512-7.111c-250.311 0-455.111 204.8-455.111 455.111s204.8 455.111 455.111 455.111 455.111-204.8 455.111-455.111-204.8-455.111-455.111-455.111z" />
<glyph unicode="&#xe90e;" glyph-name="comment" d="M607.086-16.53c-9.362 0-18.725 3.584-25.893 10.679-14.263 14.263-14.263 37.449 0 51.712l221.915 221.915c6.875 6.875 16.165 10.679 25.893 10.679h95.086c14.775 0 26.77 12.069 26.77 26.843v507.173c0 14.848-11.995 26.843-26.77 26.843h-824.101c-14.775 0.073-26.843-11.995-26.843-26.843v-507.173c0-14.775 12.069-26.843 26.843-26.843h443.685c20.187 0 36.571-16.384 36.571-36.571s-16.384-36.571-36.571-36.571h-443.685c-55.15 0.073-99.986 44.91-99.986 100.059v507.099c0 55.15 44.837 99.986 99.986 99.986h824.101c55.077 0.073 99.913-44.837 99.913-99.986v-507.173c0-55.077-44.837-99.986-99.913-99.986h-79.945l-211.237-211.090c-7.095-7.168-16.457-10.752-25.819-10.752zM460.215 564.078c0-30.297 24.56-54.857 54.857-54.857s54.857 24.56 54.857 54.857v0c0 30.297-24.56 54.857-54.857 54.857s-54.857-24.56-54.857-54.857v0zM679.643 564.078c0-30.297 24.56-54.857 54.857-54.857s54.857 24.56 54.857 54.857v0c0 30.297-24.56 54.857-54.857 54.857s-54.857-24.56-54.857-54.857v0zM234.715 564.078c0-30.297 24.56-54.857 54.857-54.857s54.857 24.56 54.857 54.857v0c0 30.297-24.56 54.857-54.857 54.857s-54.857-24.56-54.857-54.857v0z" />
<glyph unicode="&#xe90f;" glyph-name="edit" d="M944.986 757.407l-93.022-92.734-123.871 123.579 92.863 92.733c17.181 17.060 44.913 17.060 62.013 0l62.016-61.809c17.1-17.061 17.1-44.709 0-61.769v0zM293.911 355.705l123.99-123.659-165.207-41.153 41.217 164.813zM820.956 633.748l-371.829-370.777-123.968 123.619 371.928 370.816 123.869-123.659zM150.004 760.442v-674.468h675.028v486.604l88.147 87.979v-618.652c0-24.251-19.739-43.95-44.033-43.95h-763.196c-24.334 0-44.034 19.699-44.034 43.95v762.568c0 24.251 19.699 43.949 44.034 43.949h621.584l-87.987-87.98-489.543 0.001z" />
<glyph unicode="&#xe910;" glyph-name="delete" d="M621.714 155.429c-20.224 0-36.571 16.347-36.571 36.571v402.286c0 20.224 16.347 36.571 36.571 36.571s36.571-16.347 36.571-36.571v-402.286c0-20.224-16.347-36.571-36.571-36.571zM402.286 155.429c-20.224 0-36.571 16.347-36.571 36.571v402.286c0 20.224 16.347 36.571 36.571 36.571s36.571-16.347 36.571-36.571v-402.286c0-20.224-16.347-36.571-36.571-36.571zM987.429 777.143h-182.857v73.143c0 60.489-48.823 109.714-108.873 109.714h-366.555c-60.489 0-109.714-49.225-109.714-109.714v-73.143h-182.857c-20.224 0-36.571-16.347-36.571-36.571s16.347-36.571 36.571-36.571h950.857c20.224 0 36.571 16.347 36.571 36.571s-16.347 36.571-36.571 36.571zM292.571 850.286c0 20.151 16.421 36.571 36.571 36.571h366.555c20.041 0 35.73-16.055 35.73-36.571v-73.143h-438.857v73.143zM768.146-64h-512.073c-60.489 0-109.714 49.225-109.714 109.714v549.12c0 20.187 16.384 36.571 36.571 36.571s36.571-16.384 36.571-36.571v-549.12c0-20.187 16.421-36.571 36.571-36.571h512.073c20.187 0 36.571 16.384 36.571 36.571v547.621c0 20.187 16.347 36.571 36.571 36.571s36.571-16.384 36.571-36.571v-547.621c0-60.489-49.225-109.714-109.714-109.714z" />
<glyph unicode="&#xe911;" glyph-name="stop" horiz-adv-x="1028" d="M513.998 960c-282.318 0-511.994-229.683-511.994-512 0-282.324 229.677-512 511.994-512 282.324 0 512 229.677 512 512-0.011 282.313-229.677 512-512 512zM949.166 447.994c-0.006-106.133-38.237-203.462-101.579-279.066l-612.715 612.576c75.616 63.392 172.971 101.651 279.134 101.651 239.956 0 435.167-195.182 435.167-435.167zM78.836 447.994c0 106.189 38.281 203.562 101.7 279.189l612.732-612.587c-75.636-63.459-173.044-101.762-279.271-101.762-239.951 0-435.162 195.205-435.162 435.167z" />
<glyph unicode="&#xe912;" glyph-name="enabled" d="M512 960c-281.6 0-512-230.4-512-512s230.4-512 512-512 512 230.4 512 512-230.4 512-512 512zM512 0c-249.6 0-448 198.4-448 448s198.4 448 448 448 448-198.4 448-448-198.4-448-448-448zM851.2 665.6c-12.8 12.8-32 12.8-44.8 0l-409.6-409.6-179.2 172.8c-12.8 12.8-32 12.8-44.8 0s-12.8-32 0-44.8l204.8-192c6.4-6.4 12.8-6.4 19.2-6.4s19.2 0 25.6 6.4l428.8 428.8c12.8 12.8 12.8 32 0 44.8z" />
<glyph unicode="&#xe913;" glyph-name="disabled" horiz-adv-x="1025" d="M150.897 809.603c-198.397-198.397-198.397-524.801 0-723.199s524.801-198.397 723.199 0c198.397 198.397 198.397 524.801 0 723.199s-518.406 198.397-723.199 0zM202.104 131.192c-166.399 166.399-172.805 435.2-19.197 608.007l627.204-627.204c-179.201-160.003-441.608-147.203-608.007 19.197zM829.308 758.396c166.399-166.399 172.805-435.2 19.197-608.007l-627.204 627.204c179.201 160.003 441.608 147.203 608.007-19.197z" />
<glyph unicode="&#xe914;" glyph-name="menu" d="M910.223 142.222h-796.445c-62.748 0-113.777-51.029-113.777-113.777s51.029-113.777 113.777-113.777h796.445c62.748 0 113.777 51.029 113.777 113.777s-51.029 113.777-113.777 113.777zM910.223 540.444h-796.445c-62.748 0-113.777-51.029-113.777-113.777s51.029-113.777 113.777-113.777h796.445c62.748 0 113.777 51.029 113.777 113.777s-51.029 113.777-113.777 113.777zM910.223 938.667h-796.445c-62.748 0-113.777-51.029-113.777-113.777s51.029-113.777 113.777-113.777h796.445c62.748 0 113.777 51.029 113.777 113.777s-51.029 113.777-113.777 113.777z" />
<glyph unicode="&#xe915;" glyph-name="assign" d="M999.788 597.727c-18.648 39.726-52.619 59.418-96.672 59.929-57.308 0.533-114.466 0.19-171.796 0.19h-291.099c15.665 13.767 29.284 25.958 43.369 37.445 54.708 44.606 47.397 127.36-26.128 159.243-42.155 18.287-82.584 10.102-117.599-20.567-64.107-56.093-127.872-112.356-191.446-168.47-6.266-5.413-12.021-8.013-20.545-8.013-39.215 0.362-78.406 0-117.599 0.362-7.141 0-10.273-1.214-10.273-9.589 0.171-186.585 0.171-373.513 0-560.439 0-6.947 1.747-8.888 8.888-8.888 40.769 0.171 81.689 0 122.481 0.171 7.309 0 13.767-1.385 20.012-4.69 29.091-15.878 58.203-31.371 87.465-47.057 5.39-2.963 10.784-4.176 17.050-4.176h309.406c11.317 0 21.952 1.77 32.736 4.54 54.004 13.064 73.525 54.365 70.757 94.263-1.407 17.412-7.842 32.927-18.287 47.034 36.038 10.273 64.426 29.091 77.342 64.639 13.042 36.571 2.963 68.817-23.358 95.626 51.746 35.355 64.107 79.962 34.313 135.523h159.946c11.998 0 23.848 1.044 35.505 4.709 58.713 17.604 89.745 76.828 65.534 128.214v0zM126.638 132.062c0-8.355-2.090-10.442-10.273-10.251-21.611 0.49-43.541 0.362-65.321 0-6.266-0.19-7.651 1.557-7.651 7.822 0.171 159.755 0.171 319.489 0 479.071 0 6.436 1.577 8.375 8.183 8.183 22.143-0.362 44.243-0.362 66.387 0 7.141 0.19 8.716-1.918 8.716-8.888-0.171-79.451-0.171-158.71-0.171-238.119-0.043-79.131-0.404-158.539 0.129-237.82v0zM964.432 564.801c-2.258-21.611-22.996-42.517-47.397-47.034-6.628-1.214-13.235-1.577-19.862-1.577-78.918-0.171-158.177-0.171-237.095 0.171-8.375 0-11.702-2.090-10.273-10.465 0.171-1.214 0-2.622 0-4.007 0-8.355-2.237-17.582 0.511-24.892 3.133-8.013 14.641-4.007 21.952-7.503 8.183-3.836 16.368-7.842 22.973-14.108 25.618-24.038 20.033-62.018-11.317-80.324-14.279-8.183-29.772-9.761-45.649-8.716-7.651 0.384-11.488-1.363-9.932-9.74 0.19-1.577 0-3.475 0-5.051 0-8.375-2.090-17.412 0.511-24.914 3.303-8.716 14.47-3.643 21.781-7.141 9.057-4.709 18.135-8.694 25.085-16.388 34.484-37.104 1.363-78.577-30.646-85.204-17.967-3.836-35.889-1.214-54.004-2.090-8.013-0.319-18.287 3.495-22.996-1.385-5.051-4.881-1.044-15.322-1.577-23.166v-1.044c0-15.665 0-15.322 14.812-19.16 12.893-3.133 24.743-9.057 33.46-19.16 11.317-13.214 17.923-28.557 11.317-46.162-7.673-21.055-23.381-33.8-45.116-38.318-5.774-1.214-11.85-1.557-17.967-1.747-98.781 0-197.563 0-296.322-0.19-5.756 0-10.997 1.237-16.027 4.199-24.914 14.982-49.828 29.943-74.933 44.606-5.223 2.963-7.503 6.075-7.503 12.361 0.171 166.382 0.171 332.721 0 499.275 0 5.223 0.875 9.249 5.242 13.064 64.618 56.627 129.257 113.742 193.726 170.539 22.121 19.521 47.377 22.653 73.845 12.702 39.022-14.621 46.865-57.48 15.855-85.354-36.571-32.927-73.506-65.321-110.437-97.906-5.051-4.709-10.273-9.228-17.604-16.027h569.134c10.144 0 19.885-1.044 29.645-5.051 24.766-9.718 39.236-30.433 36.806-53.088v0z" />
<glyph unicode="&#xe916;" glyph-name="assign-person" d="M473.6 207.199l-57.6 57.6c-9.6 9.6-24 9.6-33.6 0v-49.601h-286.4c-9.6 0-16.001-6.4-16.001-16.001v-16.001c0-9.6 6.4-16.001 16.001-16.001h288v-49.601c9.6-9.6 24-9.6 33.6 0l57.6 57.6c8 8 8 24-1.6 32zM352 277.6l9.6 9.6c11.2 11.2 24 16.001 40 16.001s28.8-6.4 40-16.001l57.6-57.6c22.4-22.4 22.4-57.6 0-78.4l-59.2-56c-11.2-11.2-24-16.001-40-16.001-4.8 0-11.2 1.6-16.001 3.2v-8c0-14.4-4.8-27.201-16.001-36.8l-51.2-51.2s-1.6-1.6-3.2-1.6h710.402c0 248.001-200 448.001-448.001 448.001-148.801 0-280.001-72.001-361.601-184.001h137.601v28.8zM347.201 87.199l-51.2 51.2c-8 8-20.8 8-28.8 0v-43.2h-252.8c-8-1.6-14.4-8-14.4-16.001v-14.4c0-8 6.4-14.4 14.4-14.4h252.8v-43.2c8-8 20.8-8 28.8 0l51.2 51.2c8 8 8 20.8 0 28.8zM576.001 911.202c-140.8 0-256.001-115.201-256.001-256.001s115.201-256.001 256.001-256.001 256.001 115.201 256.001 256.001-115.201 256.001-256.001 256.001zM576.001 823.201c-9.6 0-16.001 6.4-16.001 16.001s6.4 16.001 16.001 16.001 16.001-6.4 16.001-16.001-6.4-16.001-16.001-16.001zM755.201 596.001h-3.2c-8 1.6-14.4 11.2-11.2 19.2 4.8 22.4 6.4 46.4 1.6 68.8-9.6 59.2-51.2 108.8-107.2 128.001-8 3.2-12.8 12.8-9.6 20.8s12.8 12.8 20.8 9.6c67.2-24 115.201-83.201 128.001-153.6 4.8-27.201 3.2-54.4-3.2-81.601-3.2-6.4-9.6-11.2-16.001-11.2z" />
<glyph unicode="&#xe917;" glyph-name="assign-person2" d="M741.501 279.454l51.177 38.584c-53.163 63.987-123.805 112.936-204.599 139.521 69.616 45.861 115.572 124.713 115.572 214.312 0.001 141.643-114.825 256.469-256.469 256.469s-256.469-114.826-256.469-256.469c0-89.822 46.185-168.843 116.091-214.654-177.499-58.887-305.741-225.789-306.798-422.803-0.004-0.817-0.007-65.271-0.007-66.088h64.030c0 0.734 0.002 65.104 0.006 65.837 0.283 51.079 10.419 100.599 30.138 147.22 19.333 45.71 47.025 86.775 82.305 122.055s76.345 62.971 122.055 82.305c43.464 18.384 89.447 28.431 136.864 29.938 3.907-0.177 7.833-0.28 11.784-0.28 4.183 0 8.341 0.108 12.476 0.306 47.72-1.413 93.996-11.47 137.721-29.964 45.71-19.333 86.775-47.025 122.055-82.305 7.515-7.512 14.722-15.327 21.604-23.427l0.462-0.557zM458.76 479.786c-3.208 0.083-6.994 0.13-10.792 0.132h-0.010c-3.988 0-7.963-0.054-11.926-0.158-47.208 2.679-91.217 22.33-124.923 56.036-36.347 36.347-56.364 84.672-56.364 136.075s20.018 99.727 56.364 136.075c36.346 36.347 84.672 56.365 136.074 56.365s99.727-20.018 136.075-56.364c36.347-36.347 56.364-84.672 56.364-136.075s-20.018-99.727-56.364-136.075c-33.604-33.605-77.45-53.236-124.497-56.011zM1024 160.173h-128.18v127.898h-63.948v-127.898h-128.086v-63.949h128.086v-128.563h63.948v128.563h128.18z" />
<glyph unicode="&#xe918;" glyph-name="tick3" d="M512-64c-282.773 0-512 229.227-512 512s229.227 512 512 512c282.773 0 512-229.227 512-512s-229.227-512-512-512zM512 896c-247.428 0-448-200.572-448-448s200.572-448 448-448c247.428 0 448 200.572 448 448s-200.572 448-448 448zM457.91 269.725c-1.057-1.519-1.685-3.237-3.039-4.591-6.309-6.293-14.617-9.216-22.875-9.001-8.258-0.215-16.566 2.709-22.858 9.001-1.354 1.354-1.982 3.055-3.039 4.575l-156.969 156.969c-12.205 12.189-12.205 31.992 0 44.181 12.205 12.205 31.992 12.205 44.197 0l138.669-138.669 298.678 298.678c12.205 12.205 31.992 12.205 44.181 0 12.205-12.205 12.205-31.992 0-44.197l-316.945-316.945z" />
<glyph unicode="&#xe919;" glyph-name="tick2" horiz-adv-x="1027" d="M292.539 525.802c-12.449 6.225-31.122 6.225-43.57 0s-12.449-31.122 0-43.57l242.749-242.749 497.946 497.946c12.449 12.449 12.449 31.122 0 43.57s-31.122 12.449-43.57 0l-454.376-460.6-199.178 205.402zM1008.336 488.456c0 18.673-18.673 31.122-31.122 31.122-18.673 0-31.122-18.673-31.122-31.122 18.673-236.524-155.608-448.151-392.132-473.048-118.263-12.449-230.3 24.897-317.441 99.589-93.364 68.467-149.383 174.281-161.833 292.543-6.225 112.038 24.897 230.3 99.589 317.441s180.505 143.16 298.768 155.608c105.814 6.225 205.402-18.673 292.543-80.916 12.449-12.449 31.122-6.225 43.57 6.225s6.225 31.122-6.225 43.57c-99.589 68.467-217.852 99.589-336.113 93.364-130.711-12.449-255.197-74.692-336.113-180.505-87.141-99.589-130.711-230.3-118.263-361.010s74.692-248.973 174.281-336.113c93.364-74.692 205.402-118.263 323.665-118.263 12.449 0 31.122 0 43.57 0 273.871 24.897 473.048 267.646 454.376 541.517z" />
<glyph unicode="&#xe91a;" glyph-name="close2" d="M841.822 118.178c-182.17-182.17-477.498-182.176-659.665-0.012-182.155 182.156-182.158 477.494 0.013 659.665 182.161 182.161 477.508 182.168 659.665 0.012 182.165-182.165 182.15-477.501-0.013-659.665zM800.605 736.613c-159.136 159.136-418.066 159.13-577.207-0.012s-159.793-418.717-0.657-577.853c159.135-159.135 418.712-158.484 577.853 0.657s159.147 418.072 0.012 577.207zM553.226 448.005l123.684-123.684c11.385-11.386 11.383-29.845-0.001-41.229s-29.844-11.387-41.229-0.001l-123.684 123.684-123.688-123.688c-11.387-11.386-29.848-11.386-41.233-0.003-11.385 11.386-11.384 29.846 0.002 41.234l123.688 123.688-123.684 123.684c-11.385 11.384-11.382 29.843 0.002 41.228s29.844 11.386 41.228 0.002l123.684-123.684 123.688 123.688c11.385 11.384 29.845 11.385 41.232-0.001 11.383-11.383 11.383-29.845-0.001-41.229l-123.688-123.688z" />
<glyph unicode="&#xe91b;" glyph-name="back2" d="M974.922 315.608c0-57.164-22.032-135.014-66.068-233.525-1.022-2.34-2.798-6.457-5.326-12.375-2.529-5.864-4.789-11.082-6.805-15.629-2.018-4.519-4.198-8.312-6.538-11.352-4.385-5.703-9.254-8.555-14.634-8.555s-9.523 1.775-12.374 5.272c-2.852 3.552-4.277 7.828-4.277 12.886 0 3.012 0.403 7.559 1.264 13.584 0.833 6.078 1.264 10.114 1.264 12.131 1.668 23.538 2.529 44.708 2.529 63.539 0 34.971-3.039 66.31-9.092 94.073-6.053 27.735-14.365 51.595-24.965 71.61-10.598 20.014-24.371 37.418-41.346 52.213-17 14.796-35.32 26.82-54.984 36.075-19.691 9.254-42.638 16.65-68.866 22.193-26.228 5.541-52.779 9.227-79.679 11.082s-57.352 2.798-91.301 2.798h-115.995v-132.163c0-9.092-3.282-16.894-9.845-23.457-6.565-6.563-14.284-9.819-23.188-9.819-8.931 0-16.571 3.174-22.947 9.576l-265.322 265.805c-6.725 6.375-10.088 14.096-10.088 23.189 0 9.092 3.363 16.651 10.088 22.704l265.321 265.831c6.375 6.375 14.015 9.576 22.947 9.576 8.904 0 16.625-3.282 23.188-9.846 6.563-6.563 9.845-14.365 9.845-23.457v-132.135h115.996c246.464 0 397.619-69.619 453.464-208.829 18.482-46.403 27.736-104.077 27.736-172.997z" />
<glyph unicode="&#xe91c;" glyph-name="back" horiz-adv-x="1317" d="M1068.852 573.279c78.179-46.603 174.103-172.32 214.015-323.66 39.91-151.334 33.294-286.854 33.294-286.854s-51.67 83.456-72.62 112.71c-20.948 29.254-109.227 138.251-246.253 201.427-137.024 63.174-366.061 51.923-366.061 51.923v-263.063l-631.227 447.121 631.227 447.119v-265.484c0 0 151.636-11.412 230.895-27.827 133.502-27.646 206.73-93.41 206.73-93.41z" />
<glyph unicode="&#xe91d;" glyph-name="relation" horiz-adv-x="1026" d="M8.579 602.359h835.743v-82.484h-835.743zM83.233 375.973h931.864v-72.027h-931.864v72.027zM786.892 724.897c-2.576 11.92 6.162 14.093 13.486 7.829 24.447-23.437 136.378-127.538 198-184.868 27.629-24.245 17.578-27.831-5.051-27.831h-176.382s-26.113 181.837-30.306 204.87zM239.108 171.103c2.576-11.92-6.162-14.093-13.486-7.829-24.447 23.437-136.378 127.538-198 184.868-27.629 24.245-17.578 27.831 5.051 27.831h176.382s26.113-181.837 30.306-204.87z" />
<glyph unicode="&#xe91e;" glyph-name="relation2" d="M1022.499 531.39l-2.078-3.587c0.216-0.89 0.539-1.742 0.539-2.708v-22.194c0-0.003 0-0.007 0-0.010 0-6.123-4.964-11.087-11.087-11.087-0.004 0-0.007 0-0.011 0h-998.765c-0.001 0-0.002 0-0.003 0-6.127 0-11.094 4.967-11.094 11.094 0 0.001 0 0.002 0 0.004v0 22.194c0 0.001 0 0.002 0 0.003 0 6.127 4.967 11.094 11.094 11.094 0.001 0 0.002 0 0.004 0h936.818l-124.497 72.263c-3.32 1.961-5.513 5.521-5.513 9.593 0 2.055 0.559 3.98 1.531 5.63l-0.028-0.052 11.141 19.191c1.959 3.327 5.522 5.524 9.598 5.524 2.053 0 3.976-0.558 5.625-1.529l-0.052 0.028 172.743-100.276c3.333-1.956 5.536-5.521 5.536-9.601 0-2.053-0.558-3.977-1.53-5.626l0.028 0.051zM6.896 363.203c-1.344 1.797-2.299 3.926-2.299 6.328v21.809c0 6.026 4.94 10.905 11.041 10.905h994.268c6.112 0 11.052-4.879 11.052-10.905v-21.809c0-6.023-4.94-10.897-11.052-10.897h-947.212l130.276-72.851c5.061-2.837 6.785-9.087 3.845-13.934l-10.64-17.648c-2.937-4.896-9.42-6.541-14.478-3.727l-164.913 92.227c-5.061 2.837-6.785 9.087-3.848 13.938l3.958 6.565z" />
</font>
</defs>
</svg>
